<?xml version="1.0" encoding="UTF-8"?>
<svg xmlns="http://www.w3.org/2000/svg" xmlns:xlink="http://www.w3.org/1999/xlink" width="792pt" height="612pt" viewBox="0 0 792 612" version="1.1">
<g id="surface1">
<path style=" stroke:none;fill-rule:nonzero;fill:rgb(100%,60.00061%,80.000305%);fill-opacity:1;" d="M 347.875 306 C 347.875 279.421875 369.421875 257.875 396 257.875 L 396 209.75 L 347.875 209.75 L 347.875 257.875 L 299.75 257.875 L 299.75 306 L 251.625 306 L 251.625 450.375 L 396 450.375 L 396 354.125 C 369.421875 354.125 347.875 332.578125 347.875 306 "/>
<path style=" stroke:none;fill-rule:nonzero;fill:rgb(100%,87.451172%,30.587769%);fill-opacity:1;" d="M 299.75 257.875 L 347.875 257.875 L 347.875 209.75 L 396 209.75 L 396 161.625 L 251.625 161.625 L 251.625 306 L 299.75 306 L 299.75 257.875 "/>
<path style=" stroke:none;fill-rule:nonzero;fill:rgb(0%,0%,82.745361%);fill-opacity:1;" d="M 396 257.875 C 409.289062 257.875 421.324219 263.261719 430.03125 271.972656 L 498.089844 203.914062 C 471.960938 177.785156 435.867188 161.625 396 161.625 L 396 257.875 "/>
<path style=" stroke:none;fill-rule:nonzero;fill:rgb(100%,41.960144%,20.391846%);fill-opacity:1;" d="M 396 354.125 L 396 450.375 C 435.867188 450.375 471.960938 434.214844 498.089844 408.089844 L 430.027344 340.03125 C 421.320312 348.738281 409.289062 354.125 396 354.125 "/>
<path style=" stroke:none;fill-rule:nonzero;fill:rgb(100%,87.451172%,30.587769%);fill-opacity:1;" d="M 498.089844 203.914062 L 430.03125 271.972656 C 438.738281 280.679688 444.125 292.710938 444.125 306 C 444.125 319.289062 438.738281 331.320312 430.027344 340.03125 L 498.089844 408.089844 C 524.21875 381.960938 540.375 345.867188 540.375 306 C 540.375 266.132812 524.21875 230.039062 498.089844 203.914062 "/>
</g>
</svg>
